# xmcd
#
# Track frame offsets:
# 150
# 20715
# 40132
# 56400
# 82227
#
# Disc length: 1252 seconds
#
#
# Revision: 2
# Processed by: cddbd v1.4PL0 Copyright (c) Steve Scherf et al.
# Submitted via: FreeRIP 2.51 
#
DISCID=3c04e205
DTITLE=Magnus Johansson - Magnus Johansson (Bonus-Cds)
DYEAR=1990
DGENRE=Pop
TTITLE0=Dom som försöker sätta åt min van
TTITLE1=När vi ger oss av ifrån Tivolistan
TTITLE2=Vakna nu, Anneli
TTITLE3=Hipp, hipp, Hurra
TTITLE4=Anneli sover
EXTD=Johan Elmeroth was here - )
EXTT0=
EXTT1=
EXTT2=
EXTT3=
EXTT4=
PLAYORDER=
